<mxfile host="app.diagrams.net" agent="Mozilla/5.0 (Windows NT 10.0; Win64; x64) AppleWebKit/537.36 (KHTML, like Gecko) Chrome/129.0.0.0 Safari/537.36" version="24.7.16">
  <diagram name="Página-1" id="mo2IT6TU77jQa9J9X_vF">
    <mxGraphModel grid="1" page="1" gridSize="10" guides="1" tooltips="1" connect="1" arrows="1" fold="1" pageScale="1" pageWidth="827" pageHeight="1169" math="0" shadow="0">
      <root>
        <mxCell id="0" />
        <mxCell id="1" parent="0" />
        <mxCell id="aJsxqt6ExiKrhJ3uL7Uz-1" value="Sistema" style="swimlane;whiteSpace=wrap;html=1;" vertex="1" parent="1">
          <mxGeometry x="370" y="130" width="300" height="1150" as="geometry" />
        </mxCell>
        <mxCell id="aJsxqt6ExiKrhJ3uL7Uz-18" style="edgeStyle=orthogonalEdgeStyle;rounded=0;orthogonalLoop=1;jettySize=auto;html=1;entryX=0.5;entryY=0;entryDx=0;entryDy=0;" edge="1" parent="aJsxqt6ExiKrhJ3uL7Uz-1" source="aJsxqt6ExiKrhJ3uL7Uz-12" target="aJsxqt6ExiKrhJ3uL7Uz-17">
          <mxGeometry relative="1" as="geometry" />
        </mxCell>
        <mxCell id="aJsxqt6ExiKrhJ3uL7Uz-12" value="Verifica si esta registrado" style="rounded=0;whiteSpace=wrap;html=1;" vertex="1" parent="aJsxqt6ExiKrhJ3uL7Uz-1">
          <mxGeometry x="90" y="340" width="120" height="60" as="geometry" />
        </mxCell>
        <mxCell id="aJsxqt6ExiKrhJ3uL7Uz-23" value="Si" style="edgeStyle=orthogonalEdgeStyle;rounded=0;orthogonalLoop=1;jettySize=auto;html=1;entryX=0.5;entryY=0;entryDx=0;entryDy=0;fillColor=#f8cecc;strokeColor=#b85450;" edge="1" parent="aJsxqt6ExiKrhJ3uL7Uz-1" source="aJsxqt6ExiKrhJ3uL7Uz-17" target="aJsxqt6ExiKrhJ3uL7Uz-22">
          <mxGeometry relative="1" as="geometry" />
        </mxCell>
        <mxCell id="aJsxqt6ExiKrhJ3uL7Uz-17" value="¿Esta registrado?" style="rhombus;whiteSpace=wrap;html=1;fontColor=#000000;fillColor=#ffffc0;strokeColor=#ff0000;" vertex="1" parent="aJsxqt6ExiKrhJ3uL7Uz-1">
          <mxGeometry x="97.5" y="440" width="105" height="50" as="geometry" />
        </mxCell>
        <mxCell id="aJsxqt6ExiKrhJ3uL7Uz-22" value="solicitar&amp;nbsp; autenticación" style="rounded=0;whiteSpace=wrap;html=1;" vertex="1" parent="aJsxqt6ExiKrhJ3uL7Uz-1">
          <mxGeometry x="90" y="530" width="120" height="60" as="geometry" />
        </mxCell>
        <mxCell id="aJsxqt6ExiKrhJ3uL7Uz-58" style="edgeStyle=orthogonalEdgeStyle;rounded=0;orthogonalLoop=1;jettySize=auto;html=1;entryX=0.5;entryY=0;entryDx=0;entryDy=0;" edge="1" parent="aJsxqt6ExiKrhJ3uL7Uz-1" source="aJsxqt6ExiKrhJ3uL7Uz-33" target="aJsxqt6ExiKrhJ3uL7Uz-34">
          <mxGeometry relative="1" as="geometry" />
        </mxCell>
        <mxCell id="aJsxqt6ExiKrhJ3uL7Uz-33" value="Verificar que todos los campos estén completos" style="html=1;whiteSpace=wrap;" vertex="1" parent="aJsxqt6ExiKrhJ3uL7Uz-1">
          <mxGeometry x="95" y="690" width="110" height="50" as="geometry" />
        </mxCell>
        <mxCell id="aJsxqt6ExiKrhJ3uL7Uz-57" style="edgeStyle=orthogonalEdgeStyle;rounded=0;orthogonalLoop=1;jettySize=auto;html=1;entryX=0.5;entryY=0;entryDx=0;entryDy=0;" edge="1" parent="aJsxqt6ExiKrhJ3uL7Uz-1" source="aJsxqt6ExiKrhJ3uL7Uz-34" target="aJsxqt6ExiKrhJ3uL7Uz-54">
          <mxGeometry relative="1" as="geometry" />
        </mxCell>
        <mxCell id="aJsxqt6ExiKrhJ3uL7Uz-34" value="Valida datos del formulario" style="html=1;whiteSpace=wrap;" vertex="1" parent="aJsxqt6ExiKrhJ3uL7Uz-1">
          <mxGeometry x="95" y="770" width="110" height="50" as="geometry" />
        </mxCell>
        <mxCell id="aJsxqt6ExiKrhJ3uL7Uz-50" style="edgeStyle=orthogonalEdgeStyle;rounded=0;orthogonalLoop=1;jettySize=auto;html=1;entryX=0.5;entryY=0;entryDx=0;entryDy=0;" edge="1" parent="aJsxqt6ExiKrhJ3uL7Uz-1" source="aJsxqt6ExiKrhJ3uL7Uz-36" target="aJsxqt6ExiKrhJ3uL7Uz-49">
          <mxGeometry relative="1" as="geometry" />
        </mxCell>
        <mxCell id="aJsxqt6ExiKrhJ3uL7Uz-36" value="Confirma la creación de la pyme " style="html=1;whiteSpace=wrap;" vertex="1" parent="aJsxqt6ExiKrhJ3uL7Uz-1">
          <mxGeometry x="95" y="930" width="110" height="50" as="geometry" />
        </mxCell>
        <mxCell id="aJsxqt6ExiKrhJ3uL7Uz-49" value="Asigna rol de administrador al dueño de la pyme             " style="html=1;whiteSpace=wrap;" vertex="1" parent="aJsxqt6ExiKrhJ3uL7Uz-1">
          <mxGeometry x="95" y="1010" width="110" height="50" as="geometry" />
        </mxCell>
        <mxCell id="aJsxqt6ExiKrhJ3uL7Uz-51" value="Visualiza que se creo con éxito la pyme" style="html=1;whiteSpace=wrap;" vertex="1" parent="aJsxqt6ExiKrhJ3uL7Uz-1">
          <mxGeometry x="-215" y="1010" width="110" height="50" as="geometry" />
        </mxCell>
        <mxCell id="aJsxqt6ExiKrhJ3uL7Uz-52" style="edgeStyle=orthogonalEdgeStyle;rounded=0;orthogonalLoop=1;jettySize=auto;html=1;entryX=1;entryY=0.5;entryDx=0;entryDy=0;" edge="1" parent="aJsxqt6ExiKrhJ3uL7Uz-1" source="aJsxqt6ExiKrhJ3uL7Uz-49" target="aJsxqt6ExiKrhJ3uL7Uz-51">
          <mxGeometry relative="1" as="geometry" />
        </mxCell>
        <mxCell id="aJsxqt6ExiKrhJ3uL7Uz-61" style="edgeStyle=orthogonalEdgeStyle;rounded=0;orthogonalLoop=1;jettySize=auto;html=1;entryX=0.5;entryY=0;entryDx=0;entryDy=0;fillColor=#f8cecc;strokeColor=#B80000;" edge="1" parent="aJsxqt6ExiKrhJ3uL7Uz-1" source="aJsxqt6ExiKrhJ3uL7Uz-54" target="aJsxqt6ExiKrhJ3uL7Uz-36">
          <mxGeometry relative="1" as="geometry" />
        </mxCell>
        <mxCell id="aJsxqt6ExiKrhJ3uL7Uz-62" value="Si" style="edgeLabel;html=1;align=center;verticalAlign=middle;resizable=0;points=[];" connectable="0" vertex="1" parent="aJsxqt6ExiKrhJ3uL7Uz-61">
          <mxGeometry x="0.28" y="-2" relative="1" as="geometry">
            <mxPoint as="offset" />
          </mxGeometry>
        </mxCell>
        <mxCell id="aJsxqt6ExiKrhJ3uL7Uz-54" value="¿Datos correctos?" style="rhombus;whiteSpace=wrap;html=1;fontColor=#000000;fillColor=#ffffc0;strokeColor=#ff0000;" vertex="1" parent="aJsxqt6ExiKrhJ3uL7Uz-1">
          <mxGeometry x="97.5" y="850" width="105" height="50" as="geometry" />
        </mxCell>
        <mxCell id="aJsxqt6ExiKrhJ3uL7Uz-2" value="Dueño_Pyme" style="swimlane;whiteSpace=wrap;html=1;" vertex="1" parent="1">
          <mxGeometry x="70" y="130" width="300" height="1150" as="geometry" />
        </mxCell>
        <mxCell id="aJsxqt6ExiKrhJ3uL7Uz-11" value="" style="edgeStyle=orthogonalEdgeStyle;rounded=0;orthogonalLoop=1;jettySize=auto;html=1;" edge="1" parent="aJsxqt6ExiKrhJ3uL7Uz-2" source="aJsxqt6ExiKrhJ3uL7Uz-4" target="aJsxqt6ExiKrhJ3uL7Uz-10">
          <mxGeometry relative="1" as="geometry" />
        </mxCell>
        <mxCell id="aJsxqt6ExiKrhJ3uL7Uz-4" value="Ingresa a la pagina web" style="rounded=0;whiteSpace=wrap;html=1;" vertex="1" parent="aJsxqt6ExiKrhJ3uL7Uz-2">
          <mxGeometry x="90" y="140" width="120" height="60" as="geometry" />
        </mxCell>
        <mxCell id="aJsxqt6ExiKrhJ3uL7Uz-7" style="edgeStyle=orthogonalEdgeStyle;rounded=0;orthogonalLoop=1;jettySize=auto;html=1;" edge="1" parent="aJsxqt6ExiKrhJ3uL7Uz-2" source="aJsxqt6ExiKrhJ3uL7Uz-6" target="aJsxqt6ExiKrhJ3uL7Uz-4">
          <mxGeometry relative="1" as="geometry" />
        </mxCell>
        <mxCell id="aJsxqt6ExiKrhJ3uL7Uz-53" value="" style="edgeStyle=orthogonalEdgeStyle;rounded=0;orthogonalLoop=1;jettySize=auto;html=1;" edge="1" parent="aJsxqt6ExiKrhJ3uL7Uz-2" source="aJsxqt6ExiKrhJ3uL7Uz-6" target="aJsxqt6ExiKrhJ3uL7Uz-4">
          <mxGeometry relative="1" as="geometry" />
        </mxCell>
        <mxCell id="aJsxqt6ExiKrhJ3uL7Uz-6" value="" style="points=[[0.145,0.145,0],[0.5,0,0],[0.855,0.145,0],[1,0.5,0],[0.855,0.855,0],[0.5,1,0],[0.145,0.855,0],[0,0.5,0]];shape=mxgraph.bpmn.event;html=1;verticalLabelPosition=bottom;labelBackgroundColor=#ffffff;verticalAlign=top;align=center;perimeter=ellipsePerimeter;outlineConnect=0;aspect=fixed;outline=standard;symbol=general;" vertex="1" parent="aJsxqt6ExiKrhJ3uL7Uz-2">
          <mxGeometry x="125" y="50" width="50" height="50" as="geometry" />
        </mxCell>
        <mxCell id="aJsxqt6ExiKrhJ3uL7Uz-15" value="" style="edgeStyle=orthogonalEdgeStyle;rounded=0;orthogonalLoop=1;jettySize=auto;html=1;" edge="1" parent="aJsxqt6ExiKrhJ3uL7Uz-2" source="aJsxqt6ExiKrhJ3uL7Uz-10" target="aJsxqt6ExiKrhJ3uL7Uz-14">
          <mxGeometry relative="1" as="geometry" />
        </mxCell>
        <mxCell id="aJsxqt6ExiKrhJ3uL7Uz-10" value="Selecciona crear pyme" style="rounded=0;whiteSpace=wrap;html=1;" vertex="1" parent="aJsxqt6ExiKrhJ3uL7Uz-2">
          <mxGeometry x="90" y="240" width="120" height="60" as="geometry" />
        </mxCell>
        <mxCell id="aJsxqt6ExiKrhJ3uL7Uz-14" value="Ingresa su correo" style="rounded=0;whiteSpace=wrap;html=1;" vertex="1" parent="aJsxqt6ExiKrhJ3uL7Uz-2">
          <mxGeometry x="90" y="340" width="120" height="60" as="geometry" />
        </mxCell>
        <mxCell id="aJsxqt6ExiKrhJ3uL7Uz-19" value="Ingresa una contraseña" style="rounded=0;whiteSpace=wrap;html=1;" vertex="1" parent="aJsxqt6ExiKrhJ3uL7Uz-2">
          <mxGeometry x="10" y="530" width="120" height="60" as="geometry" />
        </mxCell>
        <mxCell id="aJsxqt6ExiKrhJ3uL7Uz-24" value="Ingresa contraseña" style="rounded=0;whiteSpace=wrap;html=1;strokeWidth=1;" vertex="1" parent="aJsxqt6ExiKrhJ3uL7Uz-2">
          <mxGeometry x="170" y="530" width="120" height="60" as="geometry" />
        </mxCell>
        <mxCell id="aJsxqt6ExiKrhJ3uL7Uz-26" value="" style="shape=line;html=1;strokeWidth=6;strokeColor=#ff0000;" vertex="1" parent="aJsxqt6ExiKrhJ3uL7Uz-2">
          <mxGeometry x="40" y="640" width="200" height="10" as="geometry" />
        </mxCell>
        <mxCell id="aJsxqt6ExiKrhJ3uL7Uz-27" value="" style="edgeStyle=orthogonalEdgeStyle;html=1;verticalAlign=bottom;endArrow=open;endSize=8;strokeColor=#ff0000;rounded=0;entryX=0.5;entryY=0;entryDx=0;entryDy=0;" edge="1" parent="aJsxqt6ExiKrhJ3uL7Uz-2" source="aJsxqt6ExiKrhJ3uL7Uz-26" target="aJsxqt6ExiKrhJ3uL7Uz-30">
          <mxGeometry relative="1" as="geometry">
            <mxPoint x="140" y="720" as="targetPoint" />
          </mxGeometry>
        </mxCell>
        <mxCell id="aJsxqt6ExiKrhJ3uL7Uz-28" style="edgeStyle=orthogonalEdgeStyle;rounded=0;orthogonalLoop=1;jettySize=auto;html=1;entryX=0.25;entryY=0.5;entryDx=0;entryDy=0;entryPerimeter=0;" edge="1" parent="aJsxqt6ExiKrhJ3uL7Uz-2" source="aJsxqt6ExiKrhJ3uL7Uz-19" target="aJsxqt6ExiKrhJ3uL7Uz-26">
          <mxGeometry relative="1" as="geometry" />
        </mxCell>
        <mxCell id="aJsxqt6ExiKrhJ3uL7Uz-29" style="edgeStyle=orthogonalEdgeStyle;rounded=0;orthogonalLoop=1;jettySize=auto;html=1;entryX=0.75;entryY=0.5;entryDx=0;entryDy=0;entryPerimeter=0;" edge="1" parent="aJsxqt6ExiKrhJ3uL7Uz-2" source="aJsxqt6ExiKrhJ3uL7Uz-24" target="aJsxqt6ExiKrhJ3uL7Uz-26">
          <mxGeometry relative="1" as="geometry" />
        </mxCell>
        <mxCell id="aJsxqt6ExiKrhJ3uL7Uz-30" value="Llena el formulario con los datos del negocio" style="html=1;whiteSpace=wrap;" vertex="1" parent="aJsxqt6ExiKrhJ3uL7Uz-2">
          <mxGeometry x="85" y="690" width="110" height="50" as="geometry" />
        </mxCell>
        <mxCell id="aJsxqt6ExiKrhJ3uL7Uz-66" value="" style="points=[[0.145,0.145,0],[0.5,0,0],[0.855,0.145,0],[1,0.5,0],[0.855,0.855,0],[0.5,1,0],[0.145,0.855,0],[0,0.5,0]];shape=mxgraph.bpmn.event;html=1;verticalLabelPosition=bottom;labelBackgroundColor=#ffffff;verticalAlign=top;align=center;perimeter=ellipsePerimeter;outlineConnect=0;aspect=fixed;outline=end;symbol=terminate;" vertex="1" parent="aJsxqt6ExiKrhJ3uL7Uz-2">
          <mxGeometry x="115" y="1090" width="50" height="50" as="geometry" />
        </mxCell>
        <mxCell id="aJsxqt6ExiKrhJ3uL7Uz-13" value="" style="edgeStyle=orthogonalEdgeStyle;rounded=0;orthogonalLoop=1;jettySize=auto;html=1;exitX=1;exitY=0.5;exitDx=0;exitDy=0;" edge="1" parent="1" source="aJsxqt6ExiKrhJ3uL7Uz-14" target="aJsxqt6ExiKrhJ3uL7Uz-12">
          <mxGeometry relative="1" as="geometry" />
        </mxCell>
        <mxCell id="aJsxqt6ExiKrhJ3uL7Uz-20" style="edgeStyle=orthogonalEdgeStyle;rounded=0;orthogonalLoop=1;jettySize=auto;html=1;fillColor=#f8cecc;strokeColor=#b85450;entryX=0.5;entryY=0;entryDx=0;entryDy=0;" edge="1" parent="1" source="aJsxqt6ExiKrhJ3uL7Uz-17" target="aJsxqt6ExiKrhJ3uL7Uz-19">
          <mxGeometry relative="1" as="geometry">
            <mxPoint x="180" y="640" as="targetPoint" />
            <Array as="points">
              <mxPoint x="140" y="595" />
            </Array>
          </mxGeometry>
        </mxCell>
        <mxCell id="aJsxqt6ExiKrhJ3uL7Uz-21" value="No" style="edgeLabel;html=1;align=center;verticalAlign=middle;resizable=0;points=[];" connectable="0" vertex="1" parent="aJsxqt6ExiKrhJ3uL7Uz-20">
          <mxGeometry x="-0.088" y="-3" relative="1" as="geometry">
            <mxPoint x="1" as="offset" />
          </mxGeometry>
        </mxCell>
        <mxCell id="aJsxqt6ExiKrhJ3uL7Uz-25" value="" style="edgeStyle=orthogonalEdgeStyle;rounded=0;orthogonalLoop=1;jettySize=auto;html=1;" edge="1" parent="1" source="aJsxqt6ExiKrhJ3uL7Uz-22" target="aJsxqt6ExiKrhJ3uL7Uz-24">
          <mxGeometry relative="1" as="geometry" />
        </mxCell>
        <mxCell id="aJsxqt6ExiKrhJ3uL7Uz-32" value="" style="edgeStyle=orthogonalEdgeStyle;rounded=0;orthogonalLoop=1;jettySize=auto;html=1;entryX=0;entryY=0.5;entryDx=0;entryDy=0;" edge="1" parent="1" source="aJsxqt6ExiKrhJ3uL7Uz-30" target="aJsxqt6ExiKrhJ3uL7Uz-33">
          <mxGeometry relative="1" as="geometry">
            <mxPoint x="460" y="845" as="targetPoint" />
          </mxGeometry>
        </mxCell>
        <mxCell id="aJsxqt6ExiKrhJ3uL7Uz-59" style="edgeStyle=orthogonalEdgeStyle;rounded=0;orthogonalLoop=1;jettySize=auto;html=1;entryX=0;entryY=0.5;entryDx=0;entryDy=0;fillColor=#f8cecc;strokeColor=#b85450;" edge="1" parent="1" source="aJsxqt6ExiKrhJ3uL7Uz-54" target="aJsxqt6ExiKrhJ3uL7Uz-30">
          <mxGeometry relative="1" as="geometry" />
        </mxCell>
        <mxCell id="aJsxqt6ExiKrhJ3uL7Uz-60" value="No" style="edgeLabel;html=1;align=center;verticalAlign=middle;resizable=0;points=[];" connectable="0" vertex="1" parent="aJsxqt6ExiKrhJ3uL7Uz-59">
          <mxGeometry x="-0.7015" y="1" relative="1" as="geometry">
            <mxPoint as="offset" />
          </mxGeometry>
        </mxCell>
        <mxCell id="aJsxqt6ExiKrhJ3uL7Uz-67" style="edgeStyle=orthogonalEdgeStyle;rounded=0;orthogonalLoop=1;jettySize=auto;html=1;" edge="1" parent="1" source="aJsxqt6ExiKrhJ3uL7Uz-51" target="aJsxqt6ExiKrhJ3uL7Uz-66">
          <mxGeometry relative="1" as="geometry" />
        </mxCell>
      </root>
    </mxGraphModel>
  </diagram>
</mxfile>
